<!-- icon666.com - MILLIONS vector ICONS FREE --><svg id="Capa_1" enable-background="new 0 0 512 512" viewBox="0 0 512 512" xmlns="http://www.w3.org/2000/svg"><g><path d="m480 425h-128.5l-19.5-26c-4.971-6.626-14.37-7.97-21-3-6.628 4.971-7.971 14.373-3 21l24 32c2.833 3.777 7.278 6 12 6h48.791l-12.504 15.629c-7.916 9.896-.693 24.371 11.703 24.371 4.4 0 8.761-1.927 11.723-5.63l27.496-34.37h48.791c8.284 0 15-6.716 15-15s-6.716-15-15-15z" fill="#5a344b"></path><path d="m181.888 11.861c-28.439 38.896-45.43 93.82-53.749 141.739h-105.163c30.667-66.229 89.312-119.157 158.912-141.739z" fill="#a9f0f0"></path><path d="m128.139 358.4h-105.163c-29.646-63.939-31.594-136.66 0-204.8h105.163c-10.295 58.007-10.999 142.827 0 204.8z" fill="#00c6cd"></path><path d="m181.888 500.139c-69.6-22.581-128.245-75.509-158.912-141.739h105.163c8.315 47.897 25.303 102.832 53.749 141.739z" fill="#a9f0f0"></path><path d="m256 358.4v153.6c-25.525 0-50.453-4.171-74.112-11.861-28.439-38.896-45.43-93.82-53.749-141.739z" fill="#00c6cd"></path><path d="m256 0v153.6h-127.861c8.315-47.897 25.303-102.832 53.749-141.739 23.659-7.69 48.587-11.861 74.112-11.861z" fill="#00c6cd"></path><path d="m382.976 153.6h-126.976v-153.6c25.525 0 50.453 4.171 74.112 11.861 12.715 17.386 23.947 39.157 33.248 64.288 11.57 31.208 15.512 55.015 19.616 77.451z" fill="#64dde0"></path><path d="m489.024 153.6h-106.048l-2.859-15.627c-7.844-42.992-24.45-91.167-50.005-126.112 69.6 22.582 128.245 75.51 158.912 141.739z" fill="#00a0aa"></path><path d="m489.024 358.4h-105.163c9.044-51.323 10.957-107.068 6.016-159.84-1.592-17.011-4.017-29.201-6.901-44.96h106.048c29.646 63.939 31.594 136.66 0 204.8z" fill="#64dde0"></path><path d="m392.533 256c0 36.043-3.061 70.56-8.672 102.4h-127.861v-204.8h126.976c5.742 31.376 9.557 55.143 9.557 102.4z" fill="#00a0aa"></path><path d="m256 153.6v204.8h-127.861c-10.754-60.592-10.554-145.332 0-204.8z" fill="#a9f0f0"></path><circle cx="128" cy="256" fill="#ff7f4b" r="47"></circle><circle cx="360" cy="160" fill="#fd5219" r="47"></circle><circle cx="256" cy="320" fill="#ff7f4b" r="47"></circle><path d="m303 320c0 25.92-21.08 47-47 47v-94c25.92 0 47 21.08 47 47z" fill="#fd5219"></path></g></svg>